G04*
G04 #@! TF.GenerationSoftware,Altium Limited,Altium Designer,25.0.2 (28)*
G04*
G04 Layer_Color=2752767*
%FSLAX44Y44*%
%MOMM*%
G71*
G04*
G04 #@! TF.SameCoordinates,D42C59B9-CDD2-46E9-AE24-7A473A00D307*
G04*
G04*
G04 #@! TF.FilePolarity,Positive*
G04*
G01*
G75*
%ADD13C,0.1270*%
%ADD68C,0.1693*%
%ADD69C,0.1016*%
D13*
X1047750Y718820D02*
X1050290Y721360D01*
X1052830D01*
X1050290Y723900D01*
X1052830Y726440D01*
X1050290D01*
X1047750Y728980D01*
X1045210Y726440D01*
X1042670D01*
X1045210Y723900D01*
X1042670Y721360D01*
X1045210D01*
X1047750Y718820D01*
X1068070Y768820D02*
X1070610Y773900D01*
X1068070Y778980D01*
X1073150Y776440D01*
X1078230Y778980D01*
X1075690Y773900D01*
X1078230Y768820D01*
X1073150Y771360D01*
X1068070Y768820D01*
X1042670D02*
X1045210Y773900D01*
X1042670Y778980D01*
X1047750Y776440D01*
X1052830Y778980D01*
X1050290Y773900D01*
X1052830Y768820D01*
X1047750Y771360D01*
X1042670Y768820D01*
X1017270D02*
X1019810Y773900D01*
X1017270Y778980D01*
X1022350Y776440D01*
X1027430Y778980D01*
X1024890Y773900D01*
X1027430Y768820D01*
X1022350Y771360D01*
X1017270Y768820D01*
X737870Y561340D02*
X732790Y571500D01*
X742950D01*
X737870Y561340D01*
Y535940D02*
X732790Y546100D01*
X742950D01*
X737870Y535940D01*
Y510540D02*
X732790Y520700D01*
X742950D01*
X737870Y510540D01*
Y485140D02*
X732790Y495300D01*
X742950D01*
X737870Y485140D01*
X1003300Y481330D02*
X998220Y491490D01*
X1008380D01*
X1003300Y481330D01*
X1028700D02*
X1023620Y491490D01*
X1033780D01*
X1028700Y481330D01*
X1054100D02*
X1049020Y491490D01*
X1059180D01*
X1054100Y481330D01*
X1079500D02*
X1074420Y491490D01*
X1084580D01*
X1079500Y481330D01*
X1170940Y767080D02*
Y764540D01*
X1176020D01*
Y767080D01*
X1178560D01*
Y772160D01*
X1176020D01*
Y774700D01*
X1170940D01*
Y772160D01*
X1168400D01*
Y767080D01*
X1170940D01*
Y741680D02*
Y739140D01*
X1176020D01*
Y741680D01*
X1178560D01*
Y746760D01*
X1176020D01*
Y749300D01*
X1170940D01*
Y746760D01*
X1168400D01*
Y741680D01*
X1170940D01*
X1120140Y775970D02*
X1122680D01*
X1125220Y778510D01*
X1127760Y775970D01*
X1130300D01*
Y778510D01*
X1127760Y781050D01*
X1130300Y783590D01*
Y786130D01*
X1127760D01*
X1125220Y783590D01*
X1122680Y786130D01*
X1120140D01*
Y783590D01*
X1122680Y781050D01*
X1120140Y778510D01*
Y775970D01*
Y687070D02*
X1122680D01*
X1125220Y689610D01*
X1127760Y687070D01*
X1130300D01*
Y689610D01*
X1127760Y692150D01*
X1130300Y694690D01*
Y697230D01*
X1127760D01*
X1125220Y694690D01*
X1122680Y697230D01*
X1120140D01*
Y694690D01*
X1122680Y692150D01*
X1120140Y689610D01*
Y687070D01*
X833120Y759460D02*
X838200Y764540D01*
X843280Y759460D01*
X838200Y754380D01*
X833120Y759460D01*
Y734060D02*
X838200Y739140D01*
X843280Y734060D01*
X838200Y728980D01*
X833120Y734060D01*
X1117600Y481330D02*
X1112520Y491490D01*
X1122680D01*
X1117600Y481330D01*
X1143000D02*
X1137920Y491490D01*
X1148080D01*
X1143000Y481330D01*
X1168400D02*
X1163320Y491490D01*
X1173480D01*
X1168400Y481330D01*
X1193800D02*
X1188720Y491490D01*
X1198880D01*
X1193800Y481330D01*
X608330Y786130D02*
X613410Y791210D01*
X618490Y786130D01*
X613410Y781050D01*
X608330Y786130D01*
Y814070D02*
X613410Y819150D01*
X618490Y814070D01*
X613410Y808990D01*
X608330Y814070D01*
X811530Y491420D02*
Y501580D01*
X821690D01*
Y491420D01*
X811530D01*
X813562Y493452D02*
Y499548D01*
X819658D01*
Y493452D01*
X813562D01*
X762000Y457200D02*
Y467360D01*
X772160D01*
Y457200D01*
X762000D01*
X764032Y459232D02*
Y465328D01*
X770128D01*
Y459232D01*
X764032D01*
X980440Y453390D02*
Y463550D01*
X990600D01*
Y453390D01*
X980440D01*
X982472Y455422D02*
Y461518D01*
X988568D01*
Y455422D01*
X982472D01*
X853440Y502920D02*
Y513080D01*
X863600D01*
Y502920D01*
X853440D01*
X855472Y504952D02*
Y511048D01*
X861568D01*
Y504952D01*
X855472D01*
D68*
X897605Y540450D02*
G03*
X897605Y540450I-5080J0D01*
G01*
X879255D02*
G03*
X879255Y540450I-5080J0D01*
G01*
X906780Y549625D02*
G03*
X906780Y549625I-5080J0D01*
G01*
X888430D02*
G03*
X888430Y549625I-5080J0D01*
G01*
X870080D02*
G03*
X870080Y549625I-5080J0D01*
G01*
X897605Y558800D02*
G03*
X897605Y558800I-5080J0D01*
G01*
X879255D02*
G03*
X879255Y558800I-5080J0D01*
G01*
X906780Y567975D02*
G03*
X906780Y567975I-5080J0D01*
G01*
X888430D02*
G03*
X888430Y567975I-5080J0D01*
G01*
X870080D02*
G03*
X870080Y567975I-5080J0D01*
G01*
X897605Y577150D02*
G03*
X897605Y577150I-5080J0D01*
G01*
X879255D02*
G03*
X879255Y577150I-5080J0D01*
G01*
X687070Y788670D02*
G03*
X687070Y788670I-5080J0D01*
G01*
X749300Y739140D02*
G03*
X749300Y739140I-5080J0D01*
G01*
X750062Y787908D02*
G03*
X750062Y787908I-5080J0D01*
G01*
X685546Y740156D02*
G03*
X685546Y740156I-5080J0D01*
G01*
X1004570Y595630D02*
G03*
X1004570Y595630I-5080J0D01*
G01*
X1093470D02*
G03*
X1093470Y595630I-5080J0D01*
G01*
X657860Y603250D02*
G03*
X657860Y603250I-5080J0D01*
G01*
X746760D02*
G03*
X746760Y603250I-5080J0D01*
G01*
X661670Y707390D02*
G03*
X661670Y707390I-5080J0D01*
G01*
X750570D02*
G03*
X750570Y707390I-5080J0D01*
G01*
X1070610Y521970D02*
G03*
X1070610Y521970I-5080J0D01*
G01*
X1008380Y571500D02*
G03*
X1008380Y571500I-5080J0D01*
G01*
X1007618Y522732D02*
G03*
X1007618Y522732I-5080J0D01*
G01*
X1072134Y570484D02*
G03*
X1072134Y570484I-5080J0D01*
G01*
X687070Y680720D02*
G03*
X687070Y680720I-5080J0D01*
G01*
X749300Y631190D02*
G03*
X749300Y631190I-5080J0D01*
G01*
X750062Y679958D02*
G03*
X750062Y679958I-5080J0D01*
G01*
X685546Y632206D02*
G03*
X685546Y632206I-5080J0D01*
G01*
X1159510Y631190D02*
G03*
X1159510Y631190I-5080J0D01*
G01*
Y542290D02*
G03*
X1159510Y542290I-5080J0D01*
G01*
X1090930Y629920D02*
G03*
X1090930Y629920I-5080J0D01*
G01*
X1002030D02*
G03*
X1002030Y629920I-5080J0D01*
G01*
X894080Y749300D02*
G03*
X894080Y749300I-5080J0D01*
G01*
Y698500D02*
G03*
X894080Y698500I-5080J0D01*
G01*
X855980Y697230D02*
G03*
X855980Y697230I-5080J0D01*
G01*
X805180D02*
G03*
X805180Y697230I-5080J0D01*
G01*
X795020Y736600D02*
G03*
X795020Y736600I-5080J0D01*
G01*
Y787400D02*
G03*
X795020Y787400I-5080J0D01*
G01*
X1193800Y543560D02*
G03*
X1193800Y543560I-5080J0D01*
G01*
Y632460D02*
G03*
X1193800Y632460I-5080J0D01*
G01*
X1125220Y544830D02*
G03*
X1125220Y544830I-5080J0D01*
G01*
Y633730D02*
G03*
X1125220Y633730I-5080J0D01*
G01*
X1232154Y635254D02*
G03*
X1232154Y635254I-5080J0D01*
G01*
X1294384Y585724D02*
G03*
X1294384Y585724I-5080J0D01*
G01*
X1295146Y634492D02*
G03*
X1295146Y634492I-5080J0D01*
G01*
X1230630Y586740D02*
G03*
X1230630Y586740I-5080J0D01*
G01*
X1290320Y513080D02*
G03*
X1290320Y513080I-5080J0D01*
G01*
X1228090Y562610D02*
G03*
X1228090Y562610I-5080J0D01*
G01*
X1227328Y513842D02*
G03*
X1227328Y513842I-5080J0D01*
G01*
X1291844Y561594D02*
G03*
X1291844Y561594I-5080J0D01*
G01*
X668020Y817880D02*
G03*
X668020Y817880I-5080J0D01*
G01*
X756920D02*
G03*
X756920Y817880I-5080J0D01*
G01*
D69*
X895573Y540450D02*
G03*
X895573Y540450I-3048J0D01*
G01*
X877223D02*
G03*
X877223Y540450I-3048J0D01*
G01*
X904748Y549625D02*
G03*
X904748Y549625I-3048J0D01*
G01*
X886398D02*
G03*
X886398Y549625I-3048J0D01*
G01*
X868048D02*
G03*
X868048Y549625I-3048J0D01*
G01*
X895573Y558800D02*
G03*
X895573Y558800I-3048J0D01*
G01*
X877223D02*
G03*
X877223Y558800I-3048J0D01*
G01*
X904748Y567975D02*
G03*
X904748Y567975I-3048J0D01*
G01*
X886398D02*
G03*
X886398Y567975I-3048J0D01*
G01*
X868048D02*
G03*
X868048Y567975I-3048J0D01*
G01*
X895573Y577150D02*
G03*
X895573Y577150I-3048J0D01*
G01*
X877223D02*
G03*
X877223Y577150I-3048J0D01*
G01*
M02*
