G04*
G04 #@! TF.GenerationSoftware,Altium Limited,Altium Designer,25.0.2 (28)*
G04*
G04 Layer_Color=16711935*
%FSLAX44Y44*%
%MOMM*%
G71*
G04*
G04 #@! TF.SameCoordinates,D42C59B9-CDD2-46E9-AE24-7A473A00D307*
G04*
G04*
G04 #@! TF.FilePolarity,Positive*
G04*
G01*
G75*
%ADD10C,0.2000*%
%ADD13C,0.1270*%
%ADD66C,0.3702*%
D10*
X974350Y483900D02*
G03*
X974350Y483900I-1000J0D01*
G01*
X975130Y778980D02*
G03*
X975130Y778980I-1000J0D01*
G01*
D13*
X783350Y408900D02*
X963350D01*
X783350D02*
Y471900D01*
Y663900D01*
X963350D01*
Y471900D02*
Y663900D01*
Y408900D02*
Y471900D01*
X783350D02*
X963350D01*
X983755Y711455D02*
Y746505D01*
X918705Y711455D02*
X983755D01*
X918705D02*
Y746505D01*
X983755D01*
D66*
X933350Y446400D02*
Y434551D01*
X927425Y428626D01*
X921500Y434551D01*
Y446400D01*
Y437513D01*
X933350D01*
X915576Y446400D02*
Y428626D01*
X903726Y446400D01*
Y428626D01*
X897802D02*
X885952D01*
X891877D01*
Y446400D01*
X868178Y428626D02*
X880027D01*
Y446400D01*
X868178D01*
X880027Y437513D02*
X874102D01*
X862253Y446400D02*
Y428626D01*
X850404Y446400D01*
Y428626D01*
X844479Y446400D02*
Y428626D01*
X832629Y446400D01*
Y428626D01*
X826704Y446400D02*
Y434551D01*
X820780Y428626D01*
X814855Y434551D01*
Y446400D01*
Y437513D01*
X826704D01*
M02*
