G04*
G04 #@! TF.GenerationSoftware,Altium Limited,Altium Designer,25.0.2 (28)*
G04*
G04 Layer_Color=255*
%FSLAX44Y44*%
%MOMM*%
G71*
G04*
G04 #@! TF.SameCoordinates,D42C59B9-CDD2-46E9-AE24-7A473A00D307*
G04*
G04*
G04 #@! TF.FilePolarity,Positive*
G04*
G01*
G75*
%ADD17R,2.0000X0.9000*%
%ADD18R,0.9000X2.0000*%
%ADD19R,1.3300X1.3300*%
G04:AMPARAMS|DCode=20|XSize=1.31mm|YSize=0.93mm|CornerRadius=0.0698mm|HoleSize=0mm|Usage=FLASHONLY|Rotation=270.000|XOffset=0mm|YOffset=0mm|HoleType=Round|Shape=RoundedRectangle|*
%AMROUNDEDRECTD20*
21,1,1.3100,0.7905,0,0,270.0*
21,1,1.1705,0.9300,0,0,270.0*
1,1,0.1395,-0.3953,-0.5853*
1,1,0.1395,-0.3953,0.5853*
1,1,0.1395,0.3953,0.5853*
1,1,0.1395,0.3953,-0.5853*
%
%ADD20ROUNDEDRECTD20*%
G04:AMPARAMS|DCode=21|XSize=1.31mm|YSize=3.24mm|CornerRadius=0.0983mm|HoleSize=0mm|Usage=FLASHONLY|Rotation=270.000|XOffset=0mm|YOffset=0mm|HoleType=Round|Shape=RoundedRectangle|*
%AMROUNDEDRECTD21*
21,1,1.3100,3.0435,0,0,270.0*
21,1,1.1135,3.2400,0,0,270.0*
1,1,0.1965,-1.5218,-0.5568*
1,1,0.1965,-1.5218,0.5568*
1,1,0.1965,1.5218,0.5568*
1,1,0.1965,1.5218,-0.5568*
%
%ADD21ROUNDEDRECTD21*%
%ADD50C,0.3000*%
%ADD51C,1.7780*%
%ADD52R,1.7780X1.7780*%
%ADD53C,1.9050*%
%ADD54R,1.5000X1.5000*%
%ADD55C,1.5000*%
%ADD56R,1.5000X1.5000*%
G04:AMPARAMS|DCode=57|XSize=1.6mm|YSize=1.8mm|CornerRadius=0.4mm|HoleSize=0mm|Usage=FLASHONLY|Rotation=270.000|XOffset=0mm|YOffset=0mm|HoleType=Round|Shape=RoundedRectangle|*
%AMROUNDEDRECTD57*
21,1,1.6000,1.0000,0,0,270.0*
21,1,0.8000,1.8000,0,0,270.0*
1,1,0.8000,-0.5000,-0.4000*
1,1,0.8000,-0.5000,0.4000*
1,1,0.8000,0.5000,0.4000*
1,1,0.8000,0.5000,-0.4000*
%
%ADD57ROUNDEDRECTD57*%
%ADD58O,1.8000X1.6000*%
%ADD59R,2.0320X2.0320*%
%ADD60C,2.0320*%
%ADD61O,2.5400X1.7780*%
%ADD62R,2.5400X1.7780*%
%ADD63O,2.5400X1.6510*%
%ADD64R,2.5400X1.6510*%
D17*
X958350Y483800D02*
D03*
Y496500D02*
D03*
Y509200D02*
D03*
Y521900D02*
D03*
Y534600D02*
D03*
Y547300D02*
D03*
Y560000D02*
D03*
Y572700D02*
D03*
Y585400D02*
D03*
Y598100D02*
D03*
Y610800D02*
D03*
Y623500D02*
D03*
Y636200D02*
D03*
Y648900D02*
D03*
X788350D02*
D03*
Y636200D02*
D03*
Y623500D02*
D03*
Y610800D02*
D03*
Y598100D02*
D03*
Y585400D02*
D03*
Y572700D02*
D03*
Y560000D02*
D03*
Y547300D02*
D03*
Y534600D02*
D03*
Y521900D02*
D03*
Y509200D02*
D03*
Y496500D02*
D03*
Y483800D02*
D03*
D18*
X930500Y658900D02*
D03*
X917800D02*
D03*
X905100D02*
D03*
X892400D02*
D03*
X879700D02*
D03*
X867000D02*
D03*
X854300D02*
D03*
X841600D02*
D03*
X828900D02*
D03*
X816200D02*
D03*
D19*
X901700Y540450D02*
D03*
X883350D02*
D03*
X865000D02*
D03*
X901700Y558800D02*
D03*
X883350D02*
D03*
X865000D02*
D03*
X901700Y577150D02*
D03*
X883350D02*
D03*
X865000D02*
D03*
D20*
X974130Y762430D02*
D03*
X951230D02*
D03*
X928330D02*
D03*
D21*
X951230Y695530D02*
D03*
D50*
X892525Y540450D02*
D03*
X874175D02*
D03*
X901700Y549625D02*
D03*
X883350D02*
D03*
X865000D02*
D03*
X892525Y558800D02*
D03*
X874175D02*
D03*
X901700Y567975D02*
D03*
X883350D02*
D03*
X865000D02*
D03*
X892525Y577150D02*
D03*
X874175D02*
D03*
D51*
X1047750Y723900D02*
D03*
X999490Y595630D02*
D03*
X1088390D02*
D03*
X652780Y603250D02*
D03*
X741680D02*
D03*
X656590Y707390D02*
D03*
X745490D02*
D03*
X1154430Y631190D02*
D03*
Y542290D02*
D03*
X1085850Y629920D02*
D03*
X996950D02*
D03*
X889000Y749300D02*
D03*
Y698500D02*
D03*
X850900Y697230D02*
D03*
X800100D02*
D03*
X789940Y736600D02*
D03*
Y787400D02*
D03*
X1188720Y543560D02*
D03*
Y632460D02*
D03*
X1120140Y544830D02*
D03*
Y633730D02*
D03*
X662940Y817880D02*
D03*
X751840D02*
D03*
D52*
X1073150Y773900D02*
D03*
X1047750D02*
D03*
X1022350D02*
D03*
D53*
X681990Y788670D02*
D03*
X744220Y739140D02*
D03*
X744982Y787908D02*
D03*
X680466Y740156D02*
D03*
X1065530Y521970D02*
D03*
X1003300Y571500D02*
D03*
X1002538Y522732D02*
D03*
X1067054Y570484D02*
D03*
X681990Y680720D02*
D03*
X744220Y631190D02*
D03*
X744982Y679958D02*
D03*
X680466Y632206D02*
D03*
X1227074Y635254D02*
D03*
X1289304Y585724D02*
D03*
X1290066Y634492D02*
D03*
X1225550Y586740D02*
D03*
X1285240Y513080D02*
D03*
X1223010Y562610D02*
D03*
X1222248Y513842D02*
D03*
X1286764Y561594D02*
D03*
D54*
X737870Y566420D02*
D03*
D55*
Y541020D02*
D03*
Y515620D02*
D03*
Y490220D02*
D03*
X1028700Y486410D02*
D03*
X1054100D02*
D03*
X1079500D02*
D03*
X1143000D02*
D03*
X1168400D02*
D03*
X1193800D02*
D03*
D56*
X1003300D02*
D03*
X1117600D02*
D03*
D57*
X1173480Y769620D02*
D03*
D58*
Y744220D02*
D03*
D59*
X1125220Y781050D02*
D03*
D60*
Y692150D02*
D03*
D61*
X838200Y759460D02*
D03*
D62*
Y734060D02*
D03*
D63*
X613410Y786130D02*
D03*
D64*
Y814070D02*
D03*
M02*
