G04*
G04 #@! TF.GenerationSoftware,Altium Limited,Altium Designer,25.0.2 (28)*
G04*
G04 Layer_Physical_Order=2*
G04 Layer_Color=16711680*
%FSLAX44Y44*%
%MOMM*%
G71*
G04*
G04 #@! TF.SameCoordinates,D42C59B9-CDD2-46E9-AE24-7A473A00D307*
G04*
G04*
G04 #@! TF.FilePolarity,Positive*
G04*
G01*
G75*
%ADD44C,0.5080*%
%ADD46C,0.7620*%
%ADD47C,1.0000*%
%ADD48C,1.0000*%
%ADD50C,0.3000*%
%ADD51C,1.7780*%
%ADD52R,1.7780X1.7780*%
%ADD53C,1.9050*%
%ADD54R,1.5000X1.5000*%
%ADD55C,1.5000*%
%ADD56R,1.5000X1.5000*%
G04:AMPARAMS|DCode=57|XSize=1.6mm|YSize=1.8mm|CornerRadius=0.4mm|HoleSize=0mm|Usage=FLASHONLY|Rotation=270.000|XOffset=0mm|YOffset=0mm|HoleType=Round|Shape=RoundedRectangle|*
%AMROUNDEDRECTD57*
21,1,1.6000,1.0000,0,0,270.0*
21,1,0.8000,1.8000,0,0,270.0*
1,1,0.8000,-0.5000,-0.4000*
1,1,0.8000,-0.5000,0.4000*
1,1,0.8000,0.5000,0.4000*
1,1,0.8000,0.5000,-0.4000*
%
%ADD57ROUNDEDRECTD57*%
%ADD58O,1.8000X1.6000*%
%ADD59R,2.0320X2.0320*%
%ADD60C,2.0320*%
%ADD61O,2.5400X1.7780*%
%ADD62R,2.5400X1.7780*%
%ADD63O,2.5400X1.6510*%
%ADD64R,2.5400X1.6510*%
%ADD65C,1.2700*%
G36*
X1319455Y353135D02*
X570305D01*
Y849555D01*
X1319455D01*
X1319455Y353135D01*
D02*
G37*
%LPC*%
G36*
X753345Y829310D02*
X750335D01*
X747428Y828531D01*
X744822Y827026D01*
X742694Y824898D01*
X741189Y822292D01*
X740410Y819385D01*
Y816375D01*
X741189Y813468D01*
X742694Y810862D01*
X744822Y808734D01*
X747428Y807229D01*
X750335Y806450D01*
X753345D01*
X756252Y807229D01*
X758858Y808734D01*
X760986Y810862D01*
X762491Y813468D01*
X763270Y816375D01*
Y819385D01*
X762491Y822292D01*
X760986Y824898D01*
X758858Y827026D01*
X756252Y828531D01*
X753345Y829310D01*
D02*
G37*
G36*
X664445D02*
X661435D01*
X658528Y828531D01*
X655922Y827026D01*
X653794Y824898D01*
X652289Y822292D01*
X651510Y819385D01*
Y816375D01*
X652289Y813468D01*
X653794Y810862D01*
X655922Y808734D01*
X658528Y807229D01*
X661435Y806450D01*
X664445D01*
X667352Y807229D01*
X669958Y808734D01*
X672086Y810862D01*
X673591Y813468D01*
X674370Y816375D01*
Y819385D01*
X673591Y822292D01*
X672086Y824898D01*
X669958Y827026D01*
X667352Y828531D01*
X664445Y829310D01*
D02*
G37*
G36*
X628650Y824865D02*
X598170D01*
Y803275D01*
X628650D01*
Y824865D01*
D02*
G37*
G36*
X683578Y800735D02*
X683260D01*
Y789940D01*
X694055D01*
Y790258D01*
X693233Y793327D01*
X691644Y796078D01*
X689398Y798324D01*
X686647Y799913D01*
X683578Y800735D01*
D02*
G37*
G36*
X680720D02*
X680402D01*
X677333Y799913D01*
X674582Y798324D01*
X672336Y796078D01*
X670747Y793327D01*
X669925Y790258D01*
Y789940D01*
X680720D01*
Y800735D01*
D02*
G37*
G36*
X746570Y799973D02*
X746252D01*
Y789178D01*
X757047D01*
Y789496D01*
X756225Y792565D01*
X754636Y795316D01*
X752390Y797562D01*
X749639Y799151D01*
X746570Y799973D01*
D02*
G37*
G36*
X743712D02*
X743394D01*
X740325Y799151D01*
X737574Y797562D01*
X735328Y795316D01*
X733739Y792565D01*
X732917Y789496D01*
Y789178D01*
X743712D01*
Y799973D01*
D02*
G37*
G36*
X791445Y798830D02*
X791210D01*
Y788670D01*
X801370D01*
Y788905D01*
X800591Y791812D01*
X799086Y794418D01*
X796958Y796546D01*
X794352Y798051D01*
X791445Y798830D01*
D02*
G37*
G36*
X788670D02*
X788435D01*
X785528Y798051D01*
X782922Y796546D01*
X780794Y794418D01*
X779289Y791812D01*
X778510Y788905D01*
Y788670D01*
X788670D01*
Y798830D01*
D02*
G37*
G36*
X617855Y797018D02*
X614680D01*
Y787400D01*
X628576D01*
X628372Y788948D01*
X627284Y791574D01*
X625554Y793829D01*
X623299Y795559D01*
X620673Y796647D01*
X617855Y797018D01*
D02*
G37*
G36*
X612140D02*
X608965D01*
X606147Y796647D01*
X603521Y795559D01*
X601266Y793829D01*
X599536Y791574D01*
X598448Y788948D01*
X598244Y787400D01*
X612140D01*
Y797018D01*
D02*
G37*
G36*
X887730Y804009D02*
X885748Y803615D01*
X884068Y802493D01*
X884068Y802492D01*
X858668Y777093D01*
X857545Y775412D01*
X857150Y773430D01*
Y765841D01*
X852150Y764847D01*
X851994Y765224D01*
X850162Y767612D01*
X847774Y769444D01*
X844994Y770596D01*
X842010Y770989D01*
X839470D01*
Y759460D01*
X838200D01*
Y758190D01*
X823029D01*
X823254Y756476D01*
X824406Y753696D01*
X826238Y751308D01*
X827304Y750490D01*
X825653Y745490D01*
X822960D01*
Y722630D01*
X818961Y720214D01*
X791552D01*
X791445Y725170D01*
X794352Y725949D01*
X796958Y727454D01*
X799086Y729582D01*
X800591Y732188D01*
X801370Y735095D01*
Y738105D01*
X800591Y741012D01*
X799086Y743618D01*
X796958Y745746D01*
X794352Y747251D01*
X791445Y748030D01*
X788435D01*
X785528Y747251D01*
X782922Y745746D01*
X780794Y743618D01*
X779289Y741012D01*
X778510Y738105D01*
Y735095D01*
X779289Y732188D01*
X780794Y729582D01*
X782922Y727454D01*
X785528Y725949D01*
X788435Y725170D01*
X788328Y720214D01*
X777382D01*
X771014Y726582D01*
Y755650D01*
X770522Y758128D01*
X769118Y760228D01*
X760823Y768523D01*
X758722Y769927D01*
X756245Y770420D01*
X739815D01*
X737338Y769927D01*
X735237Y768523D01*
X698939Y732225D01*
X695576Y732574D01*
X695087Y732944D01*
X692214Y737385D01*
X692531Y738568D01*
Y741744D01*
X691709Y744813D01*
X690120Y747564D01*
X687874Y749810D01*
X685123Y751399D01*
X682054Y752221D01*
X678878D01*
X675809Y751399D01*
X673058Y749810D01*
X670812Y747564D01*
X669223Y744813D01*
X668401Y741744D01*
Y738568D01*
X669223Y735499D01*
X670812Y732748D01*
X671610Y731950D01*
X673026Y730370D01*
X671831Y725437D01*
X663178Y716785D01*
X661002Y718041D01*
X658095Y718820D01*
X655085D01*
X652178Y718041D01*
X649572Y716536D01*
X647444Y714408D01*
X645939Y711802D01*
X645160Y708895D01*
Y705885D01*
X645665Y704001D01*
X645434Y703443D01*
X645175Y701475D01*
Y611809D01*
X643634Y610268D01*
X642129Y607662D01*
X641350Y604755D01*
Y601745D01*
X642129Y598838D01*
X643634Y596232D01*
X645762Y594104D01*
X648368Y592599D01*
X651275Y591820D01*
X654285D01*
X657192Y592599D01*
X659798Y594104D01*
X661926Y596232D01*
X663431Y598838D01*
X664210Y601745D01*
Y604755D01*
X663431Y607662D01*
X661926Y610268D01*
X660385Y611809D01*
Y696574D01*
X661002Y696739D01*
X663608Y698244D01*
X665736Y700372D01*
X667241Y702978D01*
X667288Y703152D01*
X669007Y704301D01*
X682053Y717347D01*
X687232D01*
X687629Y717426D01*
X699770D01*
X702248Y717918D01*
X704348Y719322D01*
X727427Y742400D01*
X730519Y741307D01*
X732155Y740058D01*
Y737552D01*
X732977Y734483D01*
X734566Y731732D01*
X736812Y729486D01*
X739563Y727897D01*
X742632Y727075D01*
X745808D01*
X748877Y727897D01*
X751628Y729486D01*
X753066Y730923D01*
X756402Y730160D01*
X758066Y729125D01*
Y723900D01*
X758558Y721422D01*
X759962Y719322D01*
X770122Y709162D01*
X772222Y707758D01*
X774700Y707266D01*
X787204D01*
X787362Y707138D01*
X788938Y704001D01*
D01*
X789809Y702266D01*
X789449Y701642D01*
X788670Y698735D01*
Y698500D01*
X811530D01*
Y698735D01*
X810751Y701642D01*
X810391Y702266D01*
X812838Y707138D01*
X812996Y707266D01*
X838004D01*
X838162Y707138D01*
X840609Y702266D01*
X840249Y701642D01*
X839470Y698735D01*
Y695725D01*
X840249Y692818D01*
X841754Y690212D01*
X843882Y688084D01*
X846488Y686579D01*
X849395Y685800D01*
X852405D01*
X855312Y686579D01*
X857918Y688084D01*
X860046Y690212D01*
X861551Y692818D01*
X862330Y695725D01*
Y698735D01*
X861551Y701642D01*
X860046Y704248D01*
X859893Y704401D01*
X858537Y707844D01*
X859876Y711020D01*
X886889Y738033D01*
X887495Y737870D01*
X890505D01*
X893412Y738649D01*
X896018Y740154D01*
X898146Y742282D01*
X899651Y744888D01*
X900430Y747795D01*
Y750805D01*
X899651Y753712D01*
X898146Y756318D01*
X896018Y758446D01*
X893412Y759951D01*
X890505Y760730D01*
X887495D01*
X884588Y759951D01*
X881982Y758446D01*
X879854Y756318D01*
X878349Y753712D01*
X877570Y750805D01*
Y747795D01*
X877732Y747189D01*
X858059Y727516D01*
X853440Y729429D01*
Y738165D01*
X865993Y750717D01*
X867115Y752398D01*
X867510Y754380D01*
Y771285D01*
X889875Y793651D01*
X1054495D01*
X1057815Y790330D01*
X1055744Y785330D01*
X1049020D01*
Y773900D01*
Y762470D01*
X1056720D01*
X1060450Y762470D01*
X1064180Y762470D01*
X1084580D01*
Y785330D01*
X1073341D01*
Y787308D01*
X1072947Y789290D01*
X1071824Y790971D01*
X1060303Y802493D01*
X1058622Y803615D01*
X1056640Y804009D01*
X887730D01*
X887730Y804009D01*
D02*
G37*
G36*
X694055Y787400D02*
X683260D01*
Y776605D01*
X683578D01*
X686647Y777427D01*
X689398Y779016D01*
X691644Y781262D01*
X693233Y784013D01*
X694055Y787082D01*
Y787400D01*
D02*
G37*
G36*
X680720D02*
X669925D01*
Y787082D01*
X670747Y784013D01*
X672336Y781262D01*
X674582Y779016D01*
X677333Y777427D01*
X680402Y776605D01*
X680720D01*
Y787400D01*
D02*
G37*
G36*
X801370Y786130D02*
X791210D01*
Y775970D01*
X791445D01*
X794352Y776749D01*
X796958Y778254D01*
X799086Y780382D01*
X800591Y782988D01*
X801370Y785895D01*
Y786130D01*
D02*
G37*
G36*
X788670D02*
X778510D01*
Y785895D01*
X779289Y782988D01*
X780794Y780382D01*
X782922Y778254D01*
X785528Y776749D01*
X788435Y775970D01*
X788670D01*
Y786130D01*
D02*
G37*
G36*
X757047Y786638D02*
X746252D01*
Y775843D01*
X746570D01*
X749639Y776665D01*
X752390Y778254D01*
X754636Y780500D01*
X756225Y783251D01*
X757047Y786320D01*
Y786638D01*
D02*
G37*
G36*
X743712D02*
X732917D01*
Y786320D01*
X733739Y783251D01*
X735328Y780500D01*
X737574Y778254D01*
X740325Y776665D01*
X743394Y775843D01*
X743712D01*
Y786638D01*
D02*
G37*
G36*
X628576Y784860D02*
X614680D01*
Y775242D01*
X617855D01*
X620673Y775613D01*
X623299Y776701D01*
X625554Y778431D01*
X627284Y780686D01*
X628372Y783312D01*
X628576Y784860D01*
D02*
G37*
G36*
X612140D02*
X598244D01*
X598448Y783312D01*
X599536Y780686D01*
X601266Y778431D01*
X603521Y776701D01*
X606147Y775613D01*
X608965Y775242D01*
X612140D01*
Y784860D01*
D02*
G37*
G36*
X1178480Y780216D02*
X1174750D01*
Y770890D01*
X1185076D01*
Y773620D01*
X1184852Y775327D01*
X1184193Y776918D01*
X1183144Y778284D01*
X1181778Y779333D01*
X1180187Y779992D01*
X1178480Y780216D01*
D02*
G37*
G36*
X1172210D02*
X1168480D01*
X1166773Y779992D01*
X1165182Y779333D01*
X1163816Y778284D01*
X1162767Y776918D01*
X1162108Y775327D01*
X1161884Y773620D01*
Y770890D01*
X1172210D01*
Y780216D01*
D02*
G37*
G36*
X1137920Y793750D02*
X1112520D01*
Y768350D01*
X1137920D01*
Y793750D01*
D02*
G37*
G36*
X1035050Y785330D02*
X1031320Y785330D01*
X1010920D01*
Y762470D01*
X1014745D01*
Y604336D01*
X1013844Y603628D01*
D01*
X1008636Y602648D01*
X1006508Y604776D01*
X1005825Y605171D01*
Y622631D01*
X1006096Y622902D01*
X1007601Y625508D01*
X1008380Y628415D01*
Y631425D01*
X1007601Y634332D01*
X1006096Y636938D01*
X1003968Y639066D01*
X1001362Y640571D01*
X998455Y641350D01*
X995445D01*
X992538Y640571D01*
X989932Y639066D01*
X987804Y636938D01*
X986299Y634332D01*
X985520Y631425D01*
Y628415D01*
X986299Y625508D01*
X987804Y622902D01*
X989932Y620774D01*
X990615Y620379D01*
Y602919D01*
X990344Y602648D01*
X988839Y600042D01*
X988060Y597135D01*
Y594125D01*
X988839Y591218D01*
X990344Y588612D01*
X992472Y586484D01*
X993797Y585718D01*
X994405Y584394D01*
X994815Y581842D01*
D01*
X994654Y579916D01*
X993646Y578908D01*
X992057Y576157D01*
X991235Y573088D01*
Y569912D01*
X992057Y566843D01*
X993646Y564092D01*
X995892Y561846D01*
X998643Y560257D01*
X1001712Y559435D01*
X1004888D01*
X1007957Y560257D01*
X1009745Y561289D01*
X1011049Y561174D01*
X1012681Y560554D01*
X1014982Y559048D01*
X1015004Y558880D01*
X1015764Y557045D01*
X1016972Y555470D01*
X1035530Y536912D01*
X1037105Y535704D01*
X1038940Y534944D01*
X1040908Y534685D01*
X1054111D01*
X1056182Y529685D01*
X1055876Y529378D01*
X1054287Y526627D01*
X1053465Y523558D01*
Y523240D01*
X1065530D01*
Y521970D01*
X1066800D01*
Y509905D01*
X1067118D01*
X1070187Y510727D01*
X1072938Y512316D01*
X1075184Y514562D01*
X1076773Y517313D01*
X1077595Y520382D01*
Y521289D01*
X1082595Y523360D01*
X1085865Y520090D01*
Y503530D01*
X1078785Y496450D01*
X1078178D01*
X1075625Y495766D01*
X1073335Y494444D01*
X1071466Y492575D01*
X1070144Y490285D01*
X1069460Y487732D01*
Y485088D01*
X1070144Y482535D01*
X1071466Y480245D01*
X1073335Y478376D01*
X1075625Y477054D01*
X1078178Y476370D01*
X1080822D01*
X1083375Y477054D01*
X1085665Y478376D01*
X1087534Y480245D01*
X1088856Y482535D01*
X1089540Y485088D01*
Y485695D01*
X1098848Y495002D01*
X1100056Y496577D01*
X1100816Y498412D01*
X1101075Y500380D01*
Y523240D01*
X1100816Y525208D01*
X1100371Y526283D01*
X1100056Y527043D01*
X1098848Y528618D01*
X1079798Y547668D01*
X1078223Y548876D01*
X1076388Y549636D01*
X1074420Y549895D01*
X1044058D01*
X1029955Y563998D01*
Y762470D01*
X1035050Y762470D01*
X1038780Y762470D01*
X1046480D01*
Y773900D01*
Y785330D01*
X1038780D01*
X1035050Y785330D01*
D02*
G37*
G36*
X836930Y770989D02*
X834390D01*
X831406Y770596D01*
X828626Y769444D01*
X826238Y767612D01*
X824406Y765224D01*
X823254Y762444D01*
X823029Y760730D01*
X836930D01*
Y770989D01*
D02*
G37*
G36*
X1185076Y768350D02*
X1173480D01*
X1161884D01*
Y765620D01*
X1162108Y763913D01*
X1162767Y762322D01*
X1163816Y760956D01*
X1165182Y759907D01*
X1166773Y759248D01*
X1168480Y759024D01*
X1168606Y754024D01*
X1167165Y753427D01*
X1164963Y751737D01*
X1163273Y749536D01*
X1162211Y746972D01*
X1161849Y744220D01*
X1162211Y741469D01*
X1163273Y738904D01*
X1164963Y736703D01*
X1167165Y735013D01*
X1169728Y733951D01*
X1172480Y733589D01*
X1174480D01*
X1177232Y733951D01*
X1179796Y735013D01*
X1181997Y736703D01*
X1183687Y738904D01*
X1184749Y741469D01*
X1185111Y744220D01*
X1184749Y746972D01*
X1183687Y749536D01*
X1181997Y751737D01*
X1179796Y753427D01*
X1178354Y754024D01*
X1178480Y759024D01*
X1180187Y759248D01*
X1181778Y759907D01*
X1183144Y760956D01*
X1184193Y762322D01*
X1184852Y763913D01*
X1185076Y765620D01*
Y768350D01*
D02*
G37*
G36*
X1049401Y736440D02*
X1046099D01*
X1042910Y735585D01*
X1040050Y733934D01*
X1037716Y731600D01*
X1036065Y728740D01*
X1035210Y725551D01*
Y722249D01*
X1036065Y719060D01*
X1037716Y716200D01*
X1040050Y713866D01*
X1042910Y712215D01*
X1046099Y711360D01*
X1049401D01*
X1052590Y712215D01*
X1055450Y713866D01*
X1057785Y716200D01*
X1059435Y719060D01*
X1060290Y722249D01*
Y725551D01*
X1059435Y728740D01*
X1057785Y731600D01*
X1055450Y733934D01*
X1052590Y735585D01*
X1049401Y736440D01*
D02*
G37*
G36*
X890505Y709930D02*
X890270D01*
Y699770D01*
X900430D01*
Y700005D01*
X899651Y702912D01*
X898146Y705518D01*
X896018Y707646D01*
X893412Y709151D01*
X890505Y709930D01*
D02*
G37*
G36*
X887730D02*
X887495D01*
X884588Y709151D01*
X881982Y707646D01*
X879854Y705518D01*
X878349Y702912D01*
X877570Y700005D01*
Y699770D01*
X887730D01*
Y709930D01*
D02*
G37*
G36*
X900430Y697230D02*
X890270D01*
Y687070D01*
X890505D01*
X893412Y687849D01*
X896018Y689354D01*
X898146Y691482D01*
X899651Y694088D01*
X900430Y696995D01*
Y697230D01*
D02*
G37*
G36*
X887730D02*
X877570D01*
Y696995D01*
X878349Y694088D01*
X879854Y691482D01*
X881982Y689354D01*
X884588Y687849D01*
X887495Y687070D01*
X887730D01*
Y697230D01*
D02*
G37*
G36*
X811530Y695960D02*
X801370D01*
Y685800D01*
X801605D01*
X804512Y686579D01*
X807118Y688084D01*
X809246Y690212D01*
X810751Y692818D01*
X811530Y695725D01*
Y695960D01*
D02*
G37*
G36*
X798830D02*
X788670D01*
Y695725D01*
X789449Y692818D01*
X790954Y690212D01*
X793082Y688084D01*
X795688Y686579D01*
X798595Y685800D01*
X798830D01*
Y695960D01*
D02*
G37*
G36*
X683578Y692785D02*
X683260D01*
Y681990D01*
X694055D01*
Y682308D01*
X693233Y685377D01*
X691644Y688128D01*
X689398Y690374D01*
X686647Y691963D01*
X683578Y692785D01*
D02*
G37*
G36*
X680720D02*
X680402D01*
X677333Y691963D01*
X674582Y690374D01*
X672336Y688128D01*
X670747Y685377D01*
X669925Y682308D01*
Y681990D01*
X680720D01*
Y692785D01*
D02*
G37*
G36*
X746995Y718820D02*
X743985D01*
X741078Y718041D01*
X738472Y716536D01*
X736344Y714408D01*
X734839Y711802D01*
X734060Y708895D01*
Y705885D01*
X734839Y702978D01*
X736344Y700372D01*
X738472Y698244D01*
X741078Y696739D01*
X741377Y696659D01*
Y691483D01*
X740325Y691201D01*
X737574Y689612D01*
X735328Y687366D01*
X733739Y684615D01*
X732917Y681546D01*
Y681228D01*
X757047D01*
Y681546D01*
X756225Y684615D01*
X754636Y687366D01*
X752390Y689612D01*
X749639Y691201D01*
X749095Y691346D01*
X749095Y696523D01*
X749902Y696739D01*
X752508Y698244D01*
X754636Y700372D01*
X756141Y702978D01*
X756920Y705885D01*
Y708895D01*
X756141Y711802D01*
X754636Y714408D01*
X752508Y716536D01*
X749902Y718041D01*
X746995Y718820D01*
D02*
G37*
G36*
X1126892Y704850D02*
X1123548D01*
X1120318Y703985D01*
X1117422Y702312D01*
X1115058Y699948D01*
X1113385Y697052D01*
X1112520Y693822D01*
Y690478D01*
X1113385Y687248D01*
X1115058Y684352D01*
X1117422Y681988D01*
X1120318Y680315D01*
X1123548Y679450D01*
X1126892D01*
X1130122Y680315D01*
X1133018Y681988D01*
X1135383Y684352D01*
X1137055Y687248D01*
X1137920Y690478D01*
Y693822D01*
X1137055Y697052D01*
X1135383Y699948D01*
X1133018Y702312D01*
X1130122Y703985D01*
X1126892Y704850D01*
D02*
G37*
G36*
X694055Y679450D02*
X683260D01*
Y668655D01*
X683578D01*
X686647Y669477D01*
X689398Y671066D01*
X691644Y673312D01*
X693233Y676063D01*
X694055Y679132D01*
Y679450D01*
D02*
G37*
G36*
X680720D02*
X669925D01*
Y679132D01*
X670747Y676063D01*
X672336Y673312D01*
X674582Y671066D01*
X677333Y669477D01*
X680402Y668655D01*
X680720D01*
Y679450D01*
D02*
G37*
G36*
X757047Y678688D02*
X746252D01*
Y667893D01*
X746570D01*
X749639Y668715D01*
X752390Y670304D01*
X754636Y672550D01*
X756225Y675301D01*
X757047Y678370D01*
Y678648D01*
Y678688D01*
D02*
G37*
G36*
X743712D02*
X732917D01*
Y678370D01*
X733739Y675301D01*
X735328Y672550D01*
X737574Y670304D01*
X740325Y668715D01*
X743394Y667893D01*
X743712D01*
Y678688D01*
D02*
G37*
G36*
X1228662Y647319D02*
X1228344D01*
Y636524D01*
X1239139D01*
Y636842D01*
X1238317Y639911D01*
X1236728Y642662D01*
X1234482Y644908D01*
X1231731Y646497D01*
X1228662Y647319D01*
D02*
G37*
G36*
X1225804D02*
X1225486D01*
X1222417Y646497D01*
X1219666Y644908D01*
X1217420Y642662D01*
X1215831Y639911D01*
X1215009Y636842D01*
Y636524D01*
X1225804D01*
Y647319D01*
D02*
G37*
G36*
X1291654Y646557D02*
X1291336D01*
Y635762D01*
X1302131D01*
Y636080D01*
X1301309Y639149D01*
X1299720Y641900D01*
X1297474Y644146D01*
X1294723Y645735D01*
X1291654Y646557D01*
D02*
G37*
G36*
X1288796D02*
X1288478D01*
X1285409Y645735D01*
X1282658Y644146D01*
X1280412Y641900D01*
X1278823Y639149D01*
X1278001Y636080D01*
Y635762D01*
X1288796D01*
Y646557D01*
D02*
G37*
G36*
X1239139Y633984D02*
X1228344D01*
Y623189D01*
X1228662D01*
X1231731Y624011D01*
X1234482Y625600D01*
X1236728Y627846D01*
X1238317Y630597D01*
X1239139Y633666D01*
Y633984D01*
D02*
G37*
G36*
X1225804D02*
X1215009D01*
Y633666D01*
X1215831Y630597D01*
X1217420Y627846D01*
X1219666Y625600D01*
X1222417Y624011D01*
X1225486Y623189D01*
X1225804D01*
Y633984D01*
D02*
G37*
G36*
X1302131Y633222D02*
X1291336D01*
Y622427D01*
X1291654D01*
X1294723Y623249D01*
X1297474Y624838D01*
X1299720Y627084D01*
X1301309Y629835D01*
X1302131Y632904D01*
Y633222D01*
D02*
G37*
G36*
X1288796D02*
X1278001D01*
Y632904D01*
X1278823Y629835D01*
X1280412Y627084D01*
X1282658Y624838D01*
X1285409Y623249D01*
X1288478Y622427D01*
X1288796D01*
Y633222D01*
D02*
G37*
G36*
X1121645Y645160D02*
X1118635D01*
X1115728Y644381D01*
X1113122Y642876D01*
X1110994Y640748D01*
X1109489Y638142D01*
X1108710Y635235D01*
Y632225D01*
X1109489Y629318D01*
X1110994Y626712D01*
X1113122Y624584D01*
X1115728Y623079D01*
X1118635Y622300D01*
X1121645D01*
X1124552Y623079D01*
X1127158Y624584D01*
X1129286Y626712D01*
X1130791Y629318D01*
X1131570Y632225D01*
Y635235D01*
X1130791Y638142D01*
X1129286Y640748D01*
X1127158Y642876D01*
X1124552Y644381D01*
X1121645Y645160D01*
D02*
G37*
G36*
X1190225Y643890D02*
X1187215D01*
X1184308Y643111D01*
X1181702Y641606D01*
X1179574Y639478D01*
X1178069Y636872D01*
X1177290Y633965D01*
Y630955D01*
X1178069Y628048D01*
X1179574Y625442D01*
X1181702Y623314D01*
X1184308Y621809D01*
X1187215Y621030D01*
X1190225D01*
X1193132Y621809D01*
X1195738Y623314D01*
X1197866Y625442D01*
X1199371Y628048D01*
X1200150Y630955D01*
Y633965D01*
X1199371Y636872D01*
X1197866Y639478D01*
X1195738Y641606D01*
X1193132Y643111D01*
X1190225Y643890D01*
D02*
G37*
G36*
X682054Y644271D02*
X678878D01*
X675809Y643449D01*
X673058Y641860D01*
X670812Y639614D01*
X669223Y636863D01*
X668401Y633794D01*
Y630618D01*
X669223Y627549D01*
X670812Y624798D01*
X673058Y622552D01*
X675809Y620963D01*
X678878Y620141D01*
X682054D01*
X685123Y620963D01*
X687874Y622552D01*
X690120Y624798D01*
X691709Y627549D01*
X692531Y630618D01*
Y633794D01*
X691709Y636863D01*
X690120Y639614D01*
X687874Y641860D01*
X685123Y643449D01*
X682054Y644271D01*
D02*
G37*
G36*
X1155935Y642620D02*
X1152925D01*
X1150018Y641841D01*
X1147412Y640336D01*
X1145284Y638208D01*
X1143779Y635602D01*
X1143000Y632695D01*
Y629685D01*
X1143779Y626778D01*
X1145284Y624172D01*
X1147412Y622044D01*
X1150018Y620539D01*
X1152925Y619760D01*
X1155935D01*
X1158842Y620539D01*
X1161448Y622044D01*
X1163576Y624172D01*
X1165081Y626778D01*
X1165860Y629685D01*
Y632695D01*
X1165081Y635602D01*
X1163576Y638208D01*
X1161448Y640336D01*
X1158842Y641841D01*
X1155935Y642620D01*
D02*
G37*
G36*
X1087355Y641350D02*
X1084345D01*
X1081438Y640571D01*
X1078832Y639066D01*
X1076704Y636938D01*
X1075199Y634332D01*
X1074420Y631425D01*
Y628415D01*
X1075199Y625508D01*
X1076704Y622902D01*
X1078832Y620774D01*
X1081438Y619269D01*
X1084345Y618490D01*
X1087355D01*
X1090262Y619269D01*
X1092868Y620774D01*
X1094996Y622902D01*
X1096501Y625508D01*
X1097280Y628415D01*
Y631425D01*
X1096501Y634332D01*
X1094996Y636938D01*
X1092868Y639066D01*
X1090262Y640571D01*
X1087355Y641350D01*
D02*
G37*
G36*
X745808Y643255D02*
X742632D01*
X739563Y642433D01*
X736812Y640844D01*
X734566Y638598D01*
X732977Y635847D01*
X732155Y632778D01*
Y629602D01*
X732977Y626533D01*
X734566Y623782D01*
X736812Y621536D01*
X739563Y619947D01*
X740560Y619680D01*
X740175Y614680D01*
X737268Y613901D01*
X734662Y612396D01*
X732534Y610268D01*
X731029Y607662D01*
X730250Y604755D01*
Y601745D01*
X731029Y598838D01*
X732534Y596232D01*
X734662Y594104D01*
X737268Y592599D01*
X740175Y591820D01*
X743185D01*
X746092Y592599D01*
X748698Y594104D01*
X750826Y596232D01*
X752331Y598838D01*
X753110Y601745D01*
Y604755D01*
X752331Y607662D01*
X750826Y610268D01*
X748698Y612396D01*
X746092Y613901D01*
X745256Y614125D01*
X745808Y619125D01*
X748877Y619947D01*
X751628Y621536D01*
X753874Y623782D01*
X755463Y626533D01*
X756285Y629602D01*
Y632778D01*
X755463Y635847D01*
X753874Y638598D01*
X751628Y640844D01*
X750665Y641401D01*
D01*
X748877Y642433D01*
X745808Y643255D01*
D02*
G37*
G36*
X1089895Y607060D02*
X1086885D01*
X1083978Y606281D01*
X1081372Y604776D01*
X1079244Y602648D01*
X1077739Y600042D01*
X1076960Y597135D01*
Y594125D01*
X1077739Y591218D01*
X1079244Y588612D01*
X1081372Y586484D01*
X1083978Y584979D01*
X1086885Y584200D01*
X1089895D01*
X1092802Y584979D01*
X1095408Y586484D01*
X1097536Y588612D01*
X1099041Y591218D01*
X1099820Y594125D01*
Y597135D01*
X1099041Y600042D01*
X1097536Y602648D01*
X1095408Y604776D01*
X1092802Y606281D01*
X1089895Y607060D01*
D02*
G37*
G36*
X893329Y581190D02*
X893241Y581190D01*
D01*
X891721Y581190D01*
X891721Y581190D01*
X890627Y580737D01*
X890237Y580575D01*
X890237Y580575D01*
X890237Y580575D01*
X889100Y579438D01*
X888647Y578344D01*
X888485Y577954D01*
X888485Y577954D01*
X888485Y577953D01*
X888485Y576346D01*
X888441Y575870D01*
X888086Y573848D01*
X886652Y572414D01*
X884630Y572059D01*
X884154Y572015D01*
X882546D01*
X882070Y572059D01*
X880048Y572414D01*
X878614Y573848D01*
X878259Y575870D01*
X878215Y576346D01*
X878215Y577953D01*
X878215Y577954D01*
X878215Y577954D01*
X877600Y579438D01*
X876763Y580276D01*
X876463Y580575D01*
X876463D01*
X874979Y581190D01*
X874891Y581190D01*
X873371Y581190D01*
X873371Y581190D01*
X872277Y580737D01*
X871887Y580575D01*
X871887Y580575D01*
X871887Y580575D01*
X870750Y579438D01*
X870297Y578344D01*
X870135Y577954D01*
X870135Y577954D01*
X870135Y577953D01*
X870135Y576346D01*
X870091Y575870D01*
X869890Y574725D01*
X869736Y573848D01*
X868302Y572414D01*
X866280Y572059D01*
X865804Y572015D01*
X864196Y572015D01*
X864196Y572015D01*
X864196Y572015D01*
X862712Y571400D01*
X861618Y570306D01*
X861575Y570263D01*
X861575Y570263D01*
X861575Y570263D01*
X860960Y568779D01*
X860960Y568779D01*
X860960Y568691D01*
X860960Y567171D01*
X861413Y566077D01*
X861575Y565686D01*
X861575Y565686D01*
X861575Y565686D01*
X861618Y565644D01*
X862712Y564550D01*
X864196Y563935D01*
X864196Y563935D01*
X864196Y563935D01*
X865804Y563935D01*
X866280Y563891D01*
D01*
D01*
X868302Y563536D01*
X869736Y562102D01*
X870091Y560080D01*
X870135Y559604D01*
Y557996D01*
X870091Y557520D01*
X869736Y555498D01*
X868302Y554064D01*
D01*
X866280Y553709D01*
D01*
D01*
X865804Y553665D01*
X864196Y553665D01*
X864196Y553665D01*
X864196Y553665D01*
X863806Y553503D01*
X862712Y553050D01*
X861618Y551956D01*
X861575Y551913D01*
X861575Y551913D01*
X861575Y551913D01*
X860960Y550429D01*
X860960Y550429D01*
X860960Y550341D01*
D01*
D01*
X860960Y548821D01*
X861413Y547727D01*
X861575Y547337D01*
X861575Y547337D01*
X861575Y547337D01*
X861618Y547294D01*
X862712Y546200D01*
X863806Y545747D01*
X864196Y545585D01*
X864196Y545585D01*
X864196Y545585D01*
X865804Y545585D01*
X866280Y545541D01*
D01*
D01*
D01*
X867796Y545275D01*
X868302Y545186D01*
D01*
D01*
D01*
X869736Y543752D01*
X870091Y541730D01*
X870135Y541254D01*
X870135Y539646D01*
D01*
X870135Y539646D01*
D01*
X870135Y539646D01*
X870750Y538162D01*
X871887Y537025D01*
X871887Y537025D01*
X871887Y537025D01*
X873371Y536410D01*
X873371Y536410D01*
X873459Y536410D01*
D01*
X874979Y536410D01*
X876463Y537025D01*
X876463D01*
X876506Y537067D01*
X877600Y538162D01*
X878053Y539256D01*
X878215Y539646D01*
X878215Y539646D01*
X878215Y539646D01*
X878215Y541254D01*
X878259Y541730D01*
D01*
X878539Y543325D01*
X878614Y543752D01*
X880048Y545186D01*
D01*
X881733Y545482D01*
X882070Y545541D01*
D01*
D01*
X882546Y545585D01*
X884154D01*
X884630Y545541D01*
X886652Y545186D01*
X888086Y543752D01*
X888104Y543654D01*
X888441Y541730D01*
D01*
D01*
X888485Y541254D01*
X888485Y539646D01*
D01*
X888485Y539646D01*
X888485Y539646D01*
X889100Y538162D01*
X890237Y537025D01*
X890237Y537025D01*
X890237Y537025D01*
X891721Y536410D01*
X891721Y536410D01*
X891809Y536410D01*
D01*
X893329Y536410D01*
X894813Y537025D01*
X894814D01*
X894856Y537067D01*
X895950Y538162D01*
X896403Y539256D01*
X896565Y539646D01*
X896565Y539646D01*
X896565Y539646D01*
X896565Y541254D01*
X896609Y541730D01*
X896716Y542342D01*
X896964Y543752D01*
X898398Y545186D01*
D01*
D01*
X900420Y545541D01*
X900896Y545585D01*
X902504Y545585D01*
X902504Y545585D01*
X902504Y545585D01*
X903988Y546200D01*
X905082Y547294D01*
X905125Y547337D01*
X905125Y547337D01*
X905125Y547337D01*
X905740Y548821D01*
X905740Y548821D01*
X905740Y548909D01*
X905740Y550429D01*
X905287Y551523D01*
X905125Y551913D01*
X905125Y551913D01*
X905125Y551913D01*
X905082Y551956D01*
X903988Y553050D01*
X902895Y553503D01*
X902504Y553665D01*
X902504Y553665D01*
X902504Y553665D01*
D01*
X900896Y553665D01*
X900420Y553709D01*
X898398Y554064D01*
X896964Y555498D01*
X896609Y557520D01*
X896565Y557996D01*
Y559604D01*
X896609Y560080D01*
X896964Y562102D01*
X898398Y563536D01*
D01*
X900420Y563891D01*
X900896Y563935D01*
X902504Y563935D01*
X902504Y563935D01*
X902504Y563935D01*
X903988Y564550D01*
X905082Y565644D01*
X905125Y565686D01*
X905125Y565686D01*
X905125Y565687D01*
X905740Y567171D01*
X905740Y567171D01*
X905740Y567259D01*
X905740Y568779D01*
X905287Y569873D01*
X905125Y570263D01*
X905125Y570263D01*
X905125Y570263D01*
X905082Y570306D01*
X903988Y571400D01*
X902895Y571853D01*
X902504Y572015D01*
X902504Y572015D01*
X902504Y572015D01*
X900896Y572015D01*
D01*
X900420Y572059D01*
D01*
D01*
X898398Y572414D01*
X896964Y573848D01*
D01*
D01*
X896609Y575870D01*
X896565Y576346D01*
X896565Y577953D01*
X896565Y577954D01*
X896565Y577954D01*
X895950Y579438D01*
X895113Y580276D01*
X894814Y580575D01*
X894813D01*
X893329Y581190D01*
D02*
G37*
G36*
X1068642Y582549D02*
X1065466D01*
X1062397Y581727D01*
X1059646Y580138D01*
X1057400Y577892D01*
X1055811Y575141D01*
X1054989Y572072D01*
Y568896D01*
X1055811Y565827D01*
X1057400Y563076D01*
X1059646Y560830D01*
X1062397Y559241D01*
X1065466Y558419D01*
X1068642D01*
X1071711Y559241D01*
X1074462Y560830D01*
X1076708Y563076D01*
X1078297Y565827D01*
X1079119Y568896D01*
Y572072D01*
X1078297Y575141D01*
X1076708Y577892D01*
X1074462Y580138D01*
X1071711Y581727D01*
X1068642Y582549D01*
D02*
G37*
G36*
X747910Y576460D02*
X727830D01*
Y556380D01*
X747910D01*
Y576460D01*
D02*
G37*
G36*
X1227138Y598805D02*
X1223962D01*
X1220893Y597983D01*
X1218142Y596394D01*
X1215896Y594148D01*
X1214307Y591397D01*
X1213485Y588328D01*
Y585152D01*
X1214307Y582083D01*
X1215896Y579332D01*
X1216768Y578459D01*
X1216890Y578107D01*
X1216546Y573609D01*
X1216047Y572522D01*
X1215602Y572264D01*
X1213356Y570018D01*
X1211767Y567267D01*
X1210945Y564198D01*
Y561022D01*
X1211767Y557953D01*
X1213356Y555202D01*
X1215602Y552956D01*
X1218353Y551367D01*
X1221422Y550545D01*
X1224598D01*
X1227667Y551367D01*
X1230418Y552956D01*
X1232664Y555202D01*
X1234253Y557953D01*
X1235075Y561022D01*
Y564198D01*
X1234253Y567267D01*
X1232664Y570018D01*
X1231792Y570891D01*
X1231670Y571243D01*
X1232014Y575741D01*
D01*
X1232513Y576828D01*
X1232958Y577086D01*
X1235204Y579332D01*
X1236793Y582083D01*
X1237615Y585152D01*
Y588328D01*
X1236793Y591397D01*
X1235204Y594148D01*
X1232958Y596394D01*
X1230207Y597983D01*
X1227138Y598805D01*
D02*
G37*
G36*
X1290892Y597789D02*
X1287716D01*
X1284647Y596967D01*
X1281896Y595378D01*
X1279650Y593132D01*
X1278061Y590381D01*
X1277239Y587312D01*
Y584136D01*
X1278061Y581067D01*
X1279650Y578316D01*
X1280522Y577443D01*
X1280644Y577091D01*
X1280300Y572593D01*
X1279801Y571506D01*
X1279356Y571248D01*
X1277110Y569002D01*
X1275521Y566251D01*
X1274699Y563182D01*
Y560006D01*
X1275521Y556937D01*
X1277110Y554186D01*
X1279356Y551940D01*
X1282107Y550351D01*
X1285176Y549529D01*
X1288352D01*
X1291421Y550351D01*
X1294172Y551940D01*
X1296418Y554186D01*
X1298007Y556937D01*
X1298829Y560006D01*
Y563182D01*
X1298007Y566251D01*
X1296418Y569002D01*
X1295546Y569875D01*
X1295424Y570227D01*
X1295768Y574725D01*
X1296267Y575812D01*
X1296712Y576070D01*
X1298958Y578316D01*
X1300547Y581067D01*
X1301369Y584136D01*
Y587312D01*
X1300547Y590381D01*
X1298958Y593132D01*
X1296712Y595378D01*
X1293961Y596967D01*
X1290892Y597789D01*
D02*
G37*
G36*
X1121645Y556260D02*
X1118635D01*
X1115728Y555481D01*
X1113122Y553976D01*
X1110994Y551848D01*
X1109489Y549242D01*
X1108710Y546335D01*
Y543325D01*
X1109489Y540418D01*
X1110994Y537812D01*
X1113122Y535684D01*
X1115728Y534179D01*
X1118635Y533400D01*
X1121645D01*
X1124552Y534179D01*
X1127158Y535684D01*
X1129286Y537812D01*
X1130791Y540418D01*
X1131570Y543325D01*
Y546335D01*
X1130791Y549242D01*
X1129286Y551848D01*
X1127158Y553976D01*
X1124552Y555481D01*
X1121645Y556260D01*
D02*
G37*
G36*
X1190225Y554990D02*
X1187215D01*
X1184308Y554211D01*
X1181702Y552706D01*
X1179574Y550578D01*
X1178069Y547972D01*
X1177290Y545065D01*
Y542055D01*
X1178069Y539148D01*
X1179574Y536542D01*
X1181702Y534414D01*
X1184308Y532909D01*
X1187215Y532130D01*
X1190225D01*
X1193132Y532909D01*
X1195738Y534414D01*
X1197866Y536542D01*
X1199371Y539148D01*
X1200150Y542055D01*
Y545065D01*
X1199371Y547972D01*
X1197866Y550578D01*
X1195738Y552706D01*
X1193132Y554211D01*
X1190225Y554990D01*
D02*
G37*
G36*
X739192Y551060D02*
X736548D01*
X733995Y550376D01*
X731705Y549054D01*
X729836Y547185D01*
X728514Y544895D01*
X727830Y542342D01*
Y539698D01*
X728514Y537145D01*
X729836Y534855D01*
X731705Y532986D01*
X733995Y531664D01*
X736548Y530980D01*
X739192D01*
X741745Y531664D01*
X744035Y532986D01*
X745904Y534855D01*
X747226Y537145D01*
X747910Y539698D01*
Y542342D01*
X747532Y543752D01*
X747226Y544895D01*
X745904Y547185D01*
X744035Y549054D01*
X741745Y550376D01*
X739192Y551060D01*
D02*
G37*
G36*
X1155935Y553720D02*
X1152925D01*
X1150018Y552941D01*
X1147412Y551436D01*
X1145284Y549308D01*
X1143779Y546702D01*
X1143000Y543795D01*
Y540785D01*
X1143779Y537878D01*
X1145284Y535272D01*
X1147412Y533144D01*
X1150018Y531639D01*
X1152925Y530860D01*
X1155935D01*
X1158842Y531639D01*
X1161448Y533144D01*
X1163576Y535272D01*
X1165081Y537878D01*
X1165860Y540785D01*
Y543795D01*
X1165081Y546702D01*
X1163576Y549308D01*
X1161448Y551436D01*
X1158842Y552941D01*
X1155935Y553720D01*
D02*
G37*
G36*
X1004126Y534797D02*
X1003808D01*
Y524002D01*
X1014603D01*
Y524320D01*
X1013781Y527389D01*
X1012192Y530140D01*
X1009946Y532386D01*
X1007195Y533975D01*
X1004126Y534797D01*
D02*
G37*
G36*
X1001268D02*
X1000950D01*
X997881Y533975D01*
X995130Y532386D01*
X992884Y530140D01*
X991295Y527389D01*
X990473Y524320D01*
Y524002D01*
X1001268D01*
Y534797D01*
D02*
G37*
G36*
X739192Y525660D02*
X739140D01*
Y516890D01*
X747910D01*
Y516942D01*
X747226Y519495D01*
X745904Y521785D01*
X744035Y523654D01*
X741745Y524976D01*
X739192Y525660D01*
D02*
G37*
G36*
X736600D02*
X736548D01*
X734022Y524983D01*
X733995Y524976D01*
X731705Y523654D01*
X729836Y521785D01*
X728514Y519495D01*
X727830Y516942D01*
Y516890D01*
X736600D01*
Y525660D01*
D02*
G37*
G36*
X1223836Y525907D02*
X1223518D01*
Y515112D01*
X1234313D01*
Y515430D01*
X1233491Y518499D01*
X1231902Y521250D01*
X1229656Y523496D01*
X1226905Y525085D01*
X1223836Y525907D01*
D02*
G37*
G36*
X1220978D02*
X1220660D01*
X1217591Y525085D01*
X1214840Y523496D01*
X1212594Y521250D01*
X1211005Y518499D01*
X1210183Y515430D01*
Y515112D01*
X1220978D01*
Y525907D01*
D02*
G37*
G36*
X1286828Y525145D02*
X1286510D01*
Y514350D01*
X1297305D01*
Y514668D01*
X1296483Y517737D01*
X1294894Y520488D01*
X1292648Y522734D01*
X1289897Y524323D01*
X1286828Y525145D01*
D02*
G37*
G36*
X1283970D02*
X1283652D01*
X1280583Y524323D01*
X1277832Y522734D01*
X1275586Y520488D01*
X1273997Y517737D01*
X1273175Y514668D01*
Y514350D01*
X1283970D01*
Y525145D01*
D02*
G37*
G36*
X1014603Y521462D02*
X1003808D01*
Y510667D01*
X1004126D01*
X1007195Y511489D01*
X1009946Y513078D01*
X1012192Y515324D01*
X1013781Y518075D01*
X1014603Y521144D01*
Y521462D01*
D02*
G37*
G36*
X1001268D02*
X990473D01*
Y521144D01*
X991295Y518075D01*
X992884Y515324D01*
X995130Y513078D01*
X997881Y511489D01*
X1000950Y510667D01*
X1001268D01*
Y521462D01*
D02*
G37*
G36*
X1064260Y520700D02*
X1053465D01*
Y520382D01*
X1054287Y517313D01*
X1055876Y514562D01*
X1058122Y512316D01*
X1060873Y510727D01*
X1063942Y509905D01*
X1064260D01*
Y520700D01*
D02*
G37*
G36*
X747910Y514350D02*
X739140D01*
Y505580D01*
X739192D01*
X741745Y506264D01*
X744035Y507586D01*
X745904Y509455D01*
X747226Y511745D01*
X747910Y514298D01*
Y514350D01*
D02*
G37*
G36*
X736600D02*
X727830D01*
Y514298D01*
X728514Y511745D01*
X729836Y509455D01*
X731705Y507586D01*
X733995Y506264D01*
X736548Y505580D01*
X736600D01*
Y514350D01*
D02*
G37*
G36*
X1234313Y512572D02*
X1223518D01*
Y501777D01*
X1223836D01*
X1226905Y502599D01*
X1229656Y504188D01*
X1231902Y506434D01*
X1233491Y509185D01*
X1234313Y512254D01*
Y512572D01*
D02*
G37*
G36*
X1220978D02*
X1210183D01*
Y512254D01*
X1211005Y509185D01*
X1212594Y506434D01*
X1214840Y504188D01*
X1217591Y502599D01*
X1220660Y501777D01*
X1220978D01*
Y512572D01*
D02*
G37*
G36*
X1297305Y511810D02*
X1286510D01*
Y501015D01*
X1286828D01*
X1289897Y501837D01*
X1292648Y503426D01*
X1294894Y505672D01*
X1296483Y508423D01*
X1297305Y511492D01*
Y511810D01*
D02*
G37*
G36*
X1283970D02*
X1273175D01*
Y511492D01*
X1273997Y508423D01*
X1275586Y505672D01*
X1277832Y503426D01*
X1280583Y501837D01*
X1283652Y501015D01*
X1283970D01*
Y511810D01*
D02*
G37*
G36*
X1195122Y496450D02*
X1195070D01*
Y487680D01*
X1203840D01*
Y487732D01*
X1203156Y490285D01*
X1201834Y492575D01*
X1199965Y494444D01*
X1197675Y495766D01*
X1195122Y496450D01*
D02*
G37*
G36*
X1192530D02*
X1192478D01*
X1189925Y495766D01*
X1187635Y494444D01*
X1185766Y492575D01*
X1184444Y490285D01*
X1183760Y487732D01*
Y487680D01*
X1192530D01*
Y496450D01*
D02*
G37*
G36*
X1055422D02*
X1055370D01*
Y487680D01*
X1064140D01*
Y487732D01*
X1063456Y490285D01*
X1062134Y492575D01*
X1060265Y494444D01*
X1057975Y495766D01*
X1055422Y496450D01*
D02*
G37*
G36*
X1052830D02*
X1052778D01*
X1050225Y495766D01*
X1047935Y494444D01*
X1046066Y492575D01*
X1044744Y490285D01*
X1044060Y487732D01*
Y487680D01*
X1052830D01*
Y496450D01*
D02*
G37*
G36*
X859690Y516890D02*
X857350D01*
X855089Y516284D01*
X853061Y515114D01*
X851406Y513459D01*
X850236Y511431D01*
X849630Y509170D01*
Y506830D01*
X850236Y504569D01*
X851406Y502541D01*
X853061Y500886D01*
X855089Y499716D01*
X857350Y499110D01*
X859690D01*
X860002Y499193D01*
X875178Y484017D01*
X876858Y482895D01*
X878840Y482500D01*
X954165D01*
X957556Y479109D01*
X955642Y474490D01*
X792613D01*
X790700Y479109D01*
X802911Y491320D01*
X809335D01*
X809496Y491041D01*
X811151Y489386D01*
X813179Y488216D01*
X815440Y487610D01*
X817780D01*
X820041Y488216D01*
X822069Y489386D01*
X823724Y491041D01*
X824894Y493069D01*
X825500Y495330D01*
Y497670D01*
X824894Y499931D01*
X823724Y501959D01*
X822069Y503614D01*
X820041Y504784D01*
X817780Y505390D01*
X815440D01*
X813179Y504784D01*
X811151Y503614D01*
X809496Y501959D01*
X809335Y501679D01*
X800766D01*
X798784Y501285D01*
X797103Y500162D01*
X768111Y471170D01*
X765910D01*
X763649Y470564D01*
X761621Y469394D01*
X759966Y467739D01*
X758796Y465711D01*
X758190Y463450D01*
Y461110D01*
X758796Y458849D01*
X759966Y456821D01*
X761621Y455166D01*
X763649Y453996D01*
X765910Y453390D01*
X768250D01*
X770511Y453996D01*
X772539Y455166D01*
X774194Y456821D01*
X775364Y458849D01*
X775760Y460327D01*
X780760Y459669D01*
Y408900D01*
X780957Y407909D01*
X781519Y407069D01*
X782359Y406507D01*
X783350Y406310D01*
X963350D01*
X964341Y406507D01*
X965181Y407069D01*
X965743Y407909D01*
X965940Y408900D01*
Y464193D01*
X970559Y466106D01*
X976713Y459952D01*
X976630Y459640D01*
Y457300D01*
X977236Y455039D01*
X978406Y453011D01*
X980061Y451356D01*
X982089Y450186D01*
X984350Y449580D01*
X986690D01*
X988951Y450186D01*
X990979Y451356D01*
X992634Y453011D01*
X993804Y455039D01*
X994410Y457300D01*
Y459640D01*
X993804Y461901D01*
X992634Y463929D01*
X990979Y465584D01*
X988951Y466754D01*
X986690Y467360D01*
X984350D01*
X984038Y467277D01*
X959973Y491343D01*
X958292Y492465D01*
X956310Y492859D01*
X880985D01*
X867327Y506518D01*
X867410Y506830D01*
Y509170D01*
X866804Y511431D01*
X865634Y513459D01*
X863979Y515114D01*
X861951Y516284D01*
X859690Y516890D01*
D02*
G37*
G36*
X739192Y500260D02*
X736548D01*
X733995Y499576D01*
X731705Y498254D01*
X729836Y496385D01*
X728514Y494095D01*
X727830Y491542D01*
Y488898D01*
X728514Y486345D01*
X729836Y484055D01*
X731705Y482186D01*
X733995Y480864D01*
X736548Y480180D01*
X739192D01*
X741745Y480864D01*
X744035Y482186D01*
X745904Y484055D01*
X747226Y486345D01*
X747910Y488898D01*
Y491542D01*
X747226Y494095D01*
X745904Y496385D01*
X744035Y498254D01*
X741745Y499576D01*
X739192Y500260D01*
D02*
G37*
G36*
X1203840Y485140D02*
X1195070D01*
Y476370D01*
X1195122D01*
X1197675Y477054D01*
X1199965Y478376D01*
X1201834Y480245D01*
X1203156Y482535D01*
X1203840Y485088D01*
Y485140D01*
D02*
G37*
G36*
X1192530D02*
X1183760D01*
Y485088D01*
X1184444Y482535D01*
X1185766Y480245D01*
X1187635Y478376D01*
X1189925Y477054D01*
X1192478Y476370D01*
X1192530D01*
Y485140D01*
D02*
G37*
G36*
X1169722Y496450D02*
X1167078D01*
X1164525Y495766D01*
X1162235Y494444D01*
X1160366Y492575D01*
X1159044Y490285D01*
X1158360Y487732D01*
Y485088D01*
X1159044Y482535D01*
X1160366Y480245D01*
X1162235Y478376D01*
X1164525Y477054D01*
X1167078Y476370D01*
X1169722D01*
X1172275Y477054D01*
X1174565Y478376D01*
X1176434Y480245D01*
X1177756Y482535D01*
X1178440Y485088D01*
Y487732D01*
X1177756Y490285D01*
X1176434Y492575D01*
X1174565Y494444D01*
X1172275Y495766D01*
X1169722Y496450D01*
D02*
G37*
G36*
X1144322D02*
X1141678D01*
X1139125Y495766D01*
X1136835Y494444D01*
X1134966Y492575D01*
X1133644Y490285D01*
X1132960Y487732D01*
Y485088D01*
X1133644Y482535D01*
X1134966Y480245D01*
X1136835Y478376D01*
X1139125Y477054D01*
X1141678Y476370D01*
X1144322D01*
X1146875Y477054D01*
X1149165Y478376D01*
X1151034Y480245D01*
X1152356Y482535D01*
X1153040Y485088D01*
Y487732D01*
X1152356Y490285D01*
X1151034Y492575D01*
X1149165Y494444D01*
X1146875Y495766D01*
X1144322Y496450D01*
D02*
G37*
G36*
X1127640D02*
X1107560D01*
Y476370D01*
X1127640D01*
Y496450D01*
D02*
G37*
G36*
X1064140Y485140D02*
X1055370D01*
Y476370D01*
X1055422D01*
X1057975Y477054D01*
X1060265Y478376D01*
X1062134Y480245D01*
X1063456Y482535D01*
X1064140Y485088D01*
Y485140D01*
D02*
G37*
G36*
X1052830D02*
X1044060D01*
Y485088D01*
X1044744Y482535D01*
X1046066Y480245D01*
X1047935Y478376D01*
X1050225Y477054D01*
X1052778Y476370D01*
X1052830D01*
Y485140D01*
D02*
G37*
G36*
X1030022Y496450D02*
X1027378D01*
X1024825Y495766D01*
X1022535Y494444D01*
X1020666Y492575D01*
X1019344Y490285D01*
X1018660Y487732D01*
Y485088D01*
X1019344Y482535D01*
X1020666Y480245D01*
X1022535Y478376D01*
X1024825Y477054D01*
X1027378Y476370D01*
X1030022D01*
X1032575Y477054D01*
X1034865Y478376D01*
X1036734Y480245D01*
X1038056Y482535D01*
X1038740Y485088D01*
Y487732D01*
X1038056Y490285D01*
X1036734Y492575D01*
X1034865Y494444D01*
X1032575Y495766D01*
X1030022Y496450D01*
D02*
G37*
G36*
X1013340D02*
X993260D01*
Y476370D01*
X1013340D01*
Y496450D01*
D02*
G37*
%LPD*%
D44*
X767080Y462814D02*
X800766Y496500D01*
X767080Y462280D02*
Y462814D01*
X800766Y496500D02*
X816610D01*
X956310Y487680D02*
X985014Y458976D01*
X858520Y508000D02*
X878840Y487680D01*
X956310D01*
X1068162Y778888D02*
X1073150Y773900D01*
X887730Y798830D02*
X1056640D01*
X1068162Y778888D02*
Y787308D01*
X1056640Y798830D02*
X1068162Y787308D01*
X862330Y773430D02*
X887730Y798830D01*
X842010Y734060D02*
X862330Y754380D01*
X838200Y734060D02*
X842010D01*
X862330Y754380D02*
Y773430D01*
X680466Y632206D02*
X680974Y631698D01*
X743712D02*
X744220Y631190D01*
D46*
X764540Y723900D02*
Y755650D01*
X774700Y713740D02*
X853440D01*
X764540Y723900D02*
X774700Y713740D01*
X739815Y763945D02*
X756245D01*
X764540Y755650D01*
X699770Y723900D02*
X739815Y763945D01*
X664429Y708879D02*
X679371Y723821D01*
X687232D02*
X687311Y723900D01*
X699770D01*
X679371Y723821D02*
X687232D01*
X658079Y708879D02*
X664429D01*
X853440Y713740D02*
X889000Y749300D01*
D47*
X656590Y707390D02*
X658079Y708879D01*
D48*
X763270Y541020D02*
Y661670D01*
X737870Y515620D02*
X763270Y541020D01*
X744982Y679958D02*
X763270Y661670D01*
X652780Y603250D02*
Y701475D01*
X656590Y705285D02*
Y707390D01*
X652780Y701475D02*
X656590Y705285D01*
X998220Y596900D02*
Y628650D01*
Y596900D02*
X999490Y595630D01*
X996950Y629920D02*
X998220Y628650D01*
X1022350Y560848D02*
Y773900D01*
X1193800Y486410D02*
X1194308D01*
X1221740Y513842D02*
X1222248D01*
X1194308Y486410D02*
X1221740Y513842D01*
X1040908Y542290D02*
X1074420D01*
X1022350Y560848D02*
X1040908Y542290D01*
X1074420D02*
X1093470Y523240D01*
Y500380D02*
Y523240D01*
X1079500Y486410D02*
X1093470Y500380D01*
D50*
X892525Y540450D02*
D03*
X874175D02*
D03*
X901700Y549625D02*
D03*
X883350D02*
D03*
X865000D02*
D03*
X892525Y558800D02*
D03*
X874175D02*
D03*
X901700Y567975D02*
D03*
X883350D02*
D03*
X865000D02*
D03*
X892525Y577150D02*
D03*
X874175D02*
D03*
D51*
X1047750Y723900D02*
D03*
X999490Y595630D02*
D03*
X1088390D02*
D03*
X652780Y603250D02*
D03*
X741680D02*
D03*
X656590Y707390D02*
D03*
X745490D02*
D03*
X1154430Y631190D02*
D03*
Y542290D02*
D03*
X1085850Y629920D02*
D03*
X996950D02*
D03*
X889000Y749300D02*
D03*
Y698500D02*
D03*
X850900Y697230D02*
D03*
X800100D02*
D03*
X789940Y736600D02*
D03*
Y787400D02*
D03*
X1188720Y543560D02*
D03*
Y632460D02*
D03*
X1120140Y544830D02*
D03*
Y633730D02*
D03*
X662940Y817880D02*
D03*
X751840D02*
D03*
D52*
X1073150Y773900D02*
D03*
X1047750D02*
D03*
X1022350D02*
D03*
D53*
X681990Y788670D02*
D03*
X744220Y739140D02*
D03*
X744982Y787908D02*
D03*
X680466Y740156D02*
D03*
X1065530Y521970D02*
D03*
X1003300Y571500D02*
D03*
X1002538Y522732D02*
D03*
X1067054Y570484D02*
D03*
X681990Y680720D02*
D03*
X744220Y631190D02*
D03*
X744982Y679958D02*
D03*
X680466Y632206D02*
D03*
X1227074Y635254D02*
D03*
X1289304Y585724D02*
D03*
X1290066Y634492D02*
D03*
X1225550Y586740D02*
D03*
X1285240Y513080D02*
D03*
X1223010Y562610D02*
D03*
X1222248Y513842D02*
D03*
X1286764Y561594D02*
D03*
D54*
X737870Y566420D02*
D03*
D55*
Y541020D02*
D03*
Y515620D02*
D03*
Y490220D02*
D03*
X1028700Y486410D02*
D03*
X1054100D02*
D03*
X1079500D02*
D03*
X1143000D02*
D03*
X1168400D02*
D03*
X1193800D02*
D03*
D56*
X1003300D02*
D03*
X1117600D02*
D03*
D57*
X1173480Y769620D02*
D03*
D58*
Y744220D02*
D03*
D59*
X1125220Y781050D02*
D03*
D60*
Y692150D02*
D03*
D61*
X838200Y759460D02*
D03*
D62*
Y734060D02*
D03*
D63*
X613410Y786130D02*
D03*
D64*
Y814070D02*
D03*
D65*
X816610Y496500D02*
D03*
X767080Y462280D02*
D03*
X985520Y458470D02*
D03*
X858520Y508000D02*
D03*
M02*
