M48
;Layer_Color=9474304
;FILE_FORMAT=2:4
INCH,LZ
;TYPE=PLATED
T01F00S00C0.0118
T02F00S00C0.0280
T03F00S00C0.0310
T04F00S00C0.0320
T05F00S00C0.0350
T06F00S00C0.0354
T07F00S00C0.0394
;TYPE=NON_PLATED
T08F00S00C0.0472
T09F00S00C0.0787
%
T01
X034416Y021278
X035139
X0355Y021639
X034778
X034055
X034416Y022
X035139
X0355Y022361
X034778
X034055
X034416Y022722
X035139
T02
X03215Y019547
X0338Y02
X0388Y01805
X0302Y0182
T03
X04812Y02023
X04815Y02215
X04825Y0231
X04831Y02501
X05079Y02498
X05076Y02306
X05066Y02211
X0506Y0202
X0468Y0214
X04545Y02135
X0441Y02145
X04195Y02055
X04201Y02246
X04285Y02345
X04275Y0248
X0441Y02495
X04545Y02485
X0468Y0249
X03925Y0248
X03935Y02345
X0395Y0225
X03947Y02058
X035Y0275
X0335Y02745
X0315
X035Y0295
X0311Y029
X0293Y0291
X02935Y02785
X02933Y02677
X0293Y02485
X0292Y02375
X0257
X02679Y02489
X02685Y0268
X02585Y02785
X02679Y02914
X02685Y03105
X02933Y03102
X0311Y031
X0296Y0322
X0261
T04
X033Y0289
Y0299
X02415Y03095
Y03205
T05
X0443Y02725
Y03075
T06
X047Y01915
X046
X045
X044
X0425
X0415
X0405
X0395
X02905Y0193
Y0203
Y0213
Y0223
T07
X0462Y0293
Y0303
T08
X04025Y030468
X04125
X04225
T09
X04125Y0285
M30
